M48
METRIC,LZ,000.000
;FILE_FORMAT=3:3
;TYPE=PLATED
;Layer: PTH_Through
;EasyEDA v6.5.9, 2022-08-10 12:44:31
;c5846564ba334fc5ac80b38e15378060,f7cd1a63a7ae402ba8e4f3fce04b6e5d,10
;Gerber Generator version 0.2
;Holesize 1 = 0.305 mm
T01C0.305
;Holesize 2 = 0.800 mm
T02C0.800
;Holesize 3 = 1.000 mm
T03C1.000
;Holesize 4 = 1.301 mm
T04C1.301
%
G05
G90
T01
X009421Y-020190
X009421Y-021390
X008221Y-020190
X008221Y-021390
X010284Y-007569
X007338Y-007595
X008653Y-007597
X009653Y-007590
X006353Y-007729
X006653Y-007737
X010097Y-008098
X010391Y-008369
X012563Y-010846
X010198Y-012461
X014557Y-012123
X003338Y-007148
X005583Y-007701
X010292Y-014310
X005225Y-020625
X008324Y-024463
X007643Y-025956
X006566Y-020315
X005095Y-019680
X005187Y-021654
X011064Y-023927
X012527Y-019548
X012753Y-020041
X012667Y-020604
X012644Y-021179
X012654Y-021753
X011595Y-022695
X008885Y-023086
X009431Y-023068
X013498Y-025202
X004943Y-022131
X006005Y-023340
X007976Y-018524
X007437Y-018534
X005161Y-023533
X004956Y-021107
X010373Y-010320
X010373Y-010777
X015364Y-006584
X015382Y-006995
X015395Y-007417
X006571Y-020950
X005093Y-012304
X004663Y-012294
X004249Y-012306
X005088Y-018715
X005116Y-018164
X014046Y-008715
X010559Y-011908
X011885Y-017859
X004763Y-019141
X013175Y-022202
X008415Y-016302
X007645Y-015314
X008230Y-015050
X005743Y-015372
X005453Y-015367
X004018Y-017567
X005113Y-013190
X010759Y-024608
X010127Y-023061
X015301Y-028517
X009421Y-028405
X017640Y-030617
X017694Y-028067
X017699Y-025522
X017699Y-023002
X017696Y-020472
X017696Y-017884
X017704Y-015359
X017696Y-012852
X017701Y-010287
X017699Y-007777
X017696Y-005225
X017694Y-002786
X000086Y-030480
X000140Y-027930
X000145Y-025385
X000145Y-022865
X000142Y-020335
X000142Y-017747
X000150Y-015222
X000142Y-012715
X000147Y-010150
X000145Y-007640
X000142Y-005088
X000140Y-002649
X010023Y-027356
X009652Y-025806
X010767Y-027346
X013701Y-027376
X013833Y-026474
X014188Y-027117
X009649Y-026736
X008158Y-027318
X008291Y-026096
X005654Y-026815
X006119Y-027374
X007135Y-027386
X003566Y-022294
X012840Y-010231
X013299Y-010726
X016988Y-007724
X016271Y-007623
X004745Y-010216
X007318Y-012906
X007272Y-014917
X002619Y-017219
X003843Y-014206
X003485Y-014968
X008590Y-009594
X008489Y-010610
X005347Y-010216
X012852Y-006670
X012225Y-019047
X015293Y-021582
X015903Y-022921
X013813Y-023782
X011836Y-014669
X013056Y-014608
X009149Y-014889
X009893Y-024795
X006045Y-012334
X013338Y-009764
X012169Y-010142
X007478Y-016279
X006525Y-018466
X005578Y-015992
X006685Y-014912
X006876Y-025654
X013433Y-006670
X014100Y-006673
X006165Y-019319
T02
X014523Y-000862G85X014523Y-002062
X003283Y-000862G85X003283Y-002062
X003283Y-005062G85X003283Y-005862
X014523Y-005062G85X014523Y-005862
T03
X001270Y-001397
X001270Y-006477
X001270Y-009017
X001270Y-011557
X001270Y-014097
X001270Y-016637
X001270Y-019177
X001270Y-021717
X001270Y-024257
X001270Y-026797
X001270Y-029337
X001270Y-031877
X016510Y-031877
X016510Y-029337
X016510Y-026797
X016510Y-024257
X016510Y-021717
X016510Y-019177
X016510Y-016637
X016510Y-014097
X016510Y-011557
X016510Y-009017
X016510Y-006477
X016510Y-003937
X003203Y-024287G85X003203Y-024237
X003203Y-026827G85X003203Y-026777
X003203Y-029367G85X003203Y-029317
X003203Y-031907G85X003203Y-031857
T04
X001270Y-003937
X016510Y-001397
M30
