G04 Layer: TopPasteMaskLayer*
G04 EasyEDA v6.5.9, 2022-08-10 12:44:31*
G04 c5846564ba334fc5ac80b38e15378060,f7cd1a63a7ae402ba8e4f3fce04b6e5d,10*
G04 Gerber Generator version 0.2*
G04 Scale: 100 percent, Rotated: No, Reflected: No *
G04 Dimensions in millimeters *
G04 leading zeros omitted , absolute positions ,4 integer and 5 decimal *
%FSLAX45Y45*%
%MOMM*%

%ADD10C,0.2800*%
%ADD11R,0.7600X0.8000*%
%ADD12C,0.2750*%
%ADD13R,3.8340X3.8340*%
%ADD14R,0.7500X1.4000*%
%ADD15R,0.6500X0.5500*%
%ADD16R,0.0141X0.5500*%

%LPD*%
G36*
X865632Y-2815031D02*
G01*
X838758Y-2833370D01*
X838758Y-2850642D01*
X865632Y-2868980D01*
X915263Y-2868980D01*
X919276Y-2865018D01*
X919276Y-2818993D01*
X915263Y-2815031D01*
G37*
G36*
X735228Y-2815031D02*
G01*
X731215Y-2818993D01*
X731215Y-2865018D01*
X735228Y-2868980D01*
X784860Y-2868980D01*
X811733Y-2850642D01*
X811733Y-2833370D01*
X784860Y-2815031D01*
G37*
G36*
X1338732Y-2033473D02*
G01*
X1333754Y-2038451D01*
X1333754Y-2083460D01*
X1338732Y-2088438D01*
X1386738Y-2088438D01*
X1393748Y-2083460D01*
X1393748Y-2038451D01*
X1386738Y-2033473D01*
G37*
G36*
X1436725Y-2033473D02*
G01*
X1429715Y-2038451D01*
X1429715Y-2083460D01*
X1436725Y-2088438D01*
X1484731Y-2088438D01*
X1489710Y-2083460D01*
X1489710Y-2038451D01*
X1484731Y-2033473D01*
G37*
G36*
X1127607Y-2497074D02*
G01*
X1122629Y-2502052D01*
X1122629Y-2550058D01*
X1127607Y-2557068D01*
X1172616Y-2557068D01*
X1177594Y-2550058D01*
X1177594Y-2502052D01*
X1172616Y-2497074D01*
G37*
G36*
X1127607Y-2593035D02*
G01*
X1122629Y-2600045D01*
X1122629Y-2648051D01*
X1127607Y-2653030D01*
X1172616Y-2653030D01*
X1177594Y-2648051D01*
X1177594Y-2600045D01*
X1172616Y-2593035D01*
G37*
G36*
X1027277Y-2594813D02*
G01*
X1022299Y-2601823D01*
X1022299Y-2649829D01*
X1027277Y-2654858D01*
X1072286Y-2654858D01*
X1077264Y-2649829D01*
X1077264Y-2601823D01*
X1072286Y-2594813D01*
G37*
G36*
X1027277Y-2498852D02*
G01*
X1022299Y-2503830D01*
X1022299Y-2551836D01*
X1027277Y-2558846D01*
X1072286Y-2558846D01*
X1077264Y-2551836D01*
X1077264Y-2503830D01*
X1072286Y-2498852D01*
G37*
G36*
X1448917Y-2546299D02*
G01*
X1443939Y-2551328D01*
X1443939Y-2599334D01*
X1448917Y-2606344D01*
X1493926Y-2606344D01*
X1498904Y-2599334D01*
X1498904Y-2551328D01*
X1493926Y-2546299D01*
G37*
G36*
X1448917Y-2642311D02*
G01*
X1443939Y-2649321D01*
X1443939Y-2697327D01*
X1448917Y-2702306D01*
X1493926Y-2702306D01*
X1498904Y-2697327D01*
X1498904Y-2649321D01*
X1493926Y-2642311D01*
G37*
G36*
X1334668Y-1700733D02*
G01*
X1329690Y-1705711D01*
X1329690Y-1750720D01*
X1334668Y-1755698D01*
X1382674Y-1755698D01*
X1389684Y-1750720D01*
X1389684Y-1705711D01*
X1382674Y-1700733D01*
G37*
G36*
X1432661Y-1700733D02*
G01*
X1425651Y-1705711D01*
X1425651Y-1750720D01*
X1432661Y-1755698D01*
X1480667Y-1755698D01*
X1485646Y-1750720D01*
X1485646Y-1705711D01*
X1480667Y-1700733D01*
G37*
G36*
X429361Y-2301748D02*
G01*
X424383Y-2306726D01*
X424383Y-2354732D01*
X429361Y-2361742D01*
X474370Y-2361742D01*
X479348Y-2354732D01*
X479348Y-2306726D01*
X474370Y-2301748D01*
G37*
G36*
X429361Y-2397709D02*
G01*
X424383Y-2404719D01*
X424383Y-2452725D01*
X429361Y-2457704D01*
X474370Y-2457704D01*
X479348Y-2452725D01*
X479348Y-2404719D01*
X474370Y-2397709D01*
G37*
G36*
X1338986Y-2132279D02*
G01*
X1333957Y-2137257D01*
X1333957Y-2182266D01*
X1338986Y-2187244D01*
X1386992Y-2187244D01*
X1394002Y-2182266D01*
X1394002Y-2137257D01*
X1386992Y-2132279D01*
G37*
G36*
X1436979Y-2132279D02*
G01*
X1429969Y-2137257D01*
X1429969Y-2182266D01*
X1436979Y-2187244D01*
X1484985Y-2187244D01*
X1489964Y-2182266D01*
X1489964Y-2137257D01*
X1484985Y-2132279D01*
G37*
G36*
X1443837Y-1424889D02*
G01*
X1436827Y-1429867D01*
X1436827Y-1474876D01*
X1443837Y-1479854D01*
X1491843Y-1479854D01*
X1496872Y-1474876D01*
X1496872Y-1429867D01*
X1491843Y-1424889D01*
G37*
G36*
X1345844Y-1424889D02*
G01*
X1340866Y-1429867D01*
X1340866Y-1474876D01*
X1345844Y-1479854D01*
X1393850Y-1479854D01*
X1400860Y-1474876D01*
X1400860Y-1429867D01*
X1393850Y-1424889D01*
G37*
G36*
X1218285Y-1539189D02*
G01*
X1213307Y-1546199D01*
X1213307Y-1594205D01*
X1218285Y-1599184D01*
X1263294Y-1599184D01*
X1268272Y-1594205D01*
X1268272Y-1546199D01*
X1263294Y-1539189D01*
G37*
G36*
X1218285Y-1443228D02*
G01*
X1213307Y-1448206D01*
X1213307Y-1496212D01*
X1218285Y-1503222D01*
X1263294Y-1503222D01*
X1268272Y-1496212D01*
X1268272Y-1448206D01*
X1263294Y-1443228D01*
G37*
G36*
X897128Y-2481732D02*
G01*
X870254Y-2500122D01*
X870254Y-2517394D01*
X897128Y-2535783D01*
X946759Y-2535783D01*
X950772Y-2531770D01*
X950772Y-2485745D01*
X946759Y-2481732D01*
G37*
G36*
X766724Y-2481732D02*
G01*
X762711Y-2485745D01*
X762711Y-2531770D01*
X766724Y-2535783D01*
X816356Y-2535783D01*
X843229Y-2517394D01*
X843229Y-2500122D01*
X816356Y-2481732D01*
G37*
G36*
X620420Y-2632100D02*
G01*
X616407Y-2636113D01*
X616407Y-2682138D01*
X620420Y-2686151D01*
X670052Y-2686151D01*
X696925Y-2667762D01*
X696925Y-2650490D01*
X670052Y-2632100D01*
G37*
G36*
X750824Y-2632100D02*
G01*
X723950Y-2650490D01*
X723950Y-2667762D01*
X750824Y-2686151D01*
X800455Y-2686151D01*
X804468Y-2682138D01*
X804468Y-2636113D01*
X800455Y-2632100D01*
G37*
G36*
X289712Y-1941779D02*
G01*
X284683Y-1946757D01*
X284683Y-1991766D01*
X289712Y-1996744D01*
X337718Y-1996744D01*
X344728Y-1991766D01*
X344728Y-1946757D01*
X337718Y-1941779D01*
G37*
G36*
X387705Y-1941779D02*
G01*
X380695Y-1946757D01*
X380695Y-1991766D01*
X387705Y-1996744D01*
X435711Y-1996744D01*
X440690Y-1991766D01*
X440690Y-1946757D01*
X435711Y-1941779D01*
G37*
G36*
X309778Y-1689557D02*
G01*
X304749Y-1694535D01*
X304749Y-1739544D01*
X309778Y-1744522D01*
X357784Y-1744522D01*
X364794Y-1739544D01*
X364794Y-1694535D01*
X357784Y-1689557D01*
G37*
G36*
X407771Y-1689557D02*
G01*
X400761Y-1694535D01*
X400761Y-1739544D01*
X407771Y-1744522D01*
X455777Y-1744522D01*
X460756Y-1739544D01*
X460756Y-1694535D01*
X455777Y-1689557D01*
G37*
G36*
X1310386Y-2376982D02*
G01*
X1292047Y-2403856D01*
X1292047Y-2453487D01*
X1296009Y-2457500D01*
X1342034Y-2457500D01*
X1345996Y-2453487D01*
X1345996Y-2403856D01*
X1327658Y-2376982D01*
G37*
G36*
X1296009Y-2269439D02*
G01*
X1292047Y-2273452D01*
X1292047Y-2323084D01*
X1310386Y-2349957D01*
X1327658Y-2349957D01*
X1345996Y-2323084D01*
X1345996Y-2273452D01*
X1342034Y-2269439D01*
G37*
G36*
X327304Y-1527505D02*
G01*
X322275Y-1532483D01*
X322275Y-1577492D01*
X327304Y-1582470D01*
X375310Y-1582470D01*
X382320Y-1577492D01*
X382320Y-1532483D01*
X375310Y-1527505D01*
G37*
G36*
X425297Y-1527505D02*
G01*
X418287Y-1532483D01*
X418287Y-1577492D01*
X425297Y-1582470D01*
X473303Y-1582470D01*
X478282Y-1577492D01*
X478282Y-1532483D01*
X473303Y-1527505D01*
G37*
G36*
X1429258Y-2379522D02*
G01*
X1410919Y-2406396D01*
X1410919Y-2456027D01*
X1414881Y-2460040D01*
X1460906Y-2460040D01*
X1464868Y-2456027D01*
X1464868Y-2406396D01*
X1446530Y-2379522D01*
G37*
G36*
X1414881Y-2271979D02*
G01*
X1410919Y-2275992D01*
X1410919Y-2325624D01*
X1429258Y-2352497D01*
X1446530Y-2352497D01*
X1464868Y-2325624D01*
X1464868Y-2275992D01*
X1460906Y-2271979D01*
G37*
G36*
X307695Y-1392377D02*
G01*
X302717Y-1399387D01*
X302717Y-1447393D01*
X307695Y-1452422D01*
X352704Y-1452422D01*
X357682Y-1447393D01*
X357682Y-1399387D01*
X352704Y-1392377D01*
G37*
G36*
X307695Y-1296416D02*
G01*
X302717Y-1301394D01*
X302717Y-1349400D01*
X307695Y-1356410D01*
X352704Y-1356410D01*
X357682Y-1349400D01*
X357682Y-1301394D01*
X352704Y-1296416D01*
G37*
G36*
X408025Y-1295857D02*
G01*
X403047Y-1300886D01*
X403047Y-1348892D01*
X408025Y-1355902D01*
X453034Y-1355902D01*
X458012Y-1348892D01*
X458012Y-1300886D01*
X453034Y-1295857D01*
G37*
G36*
X408025Y-1391869D02*
G01*
X403047Y-1398879D01*
X403047Y-1446885D01*
X408025Y-1451864D01*
X453034Y-1451864D01*
X458012Y-1446885D01*
X458012Y-1398879D01*
X453034Y-1391869D01*
G37*
G36*
X867562Y-1084275D02*
G01*
X862533Y-1089253D01*
X862533Y-1134262D01*
X867562Y-1139240D01*
X915568Y-1139240D01*
X922578Y-1134262D01*
X922578Y-1089253D01*
X915568Y-1084275D01*
G37*
G36*
X965555Y-1084275D02*
G01*
X958545Y-1089253D01*
X958545Y-1134262D01*
X965555Y-1139240D01*
X1013561Y-1139240D01*
X1018540Y-1134262D01*
X1018540Y-1089253D01*
X1013561Y-1084275D01*
G37*
G36*
X1101699Y-1444193D02*
G01*
X1096721Y-1449222D01*
X1096721Y-1497228D01*
X1101699Y-1504238D01*
X1146708Y-1504238D01*
X1151686Y-1497228D01*
X1151686Y-1449222D01*
X1146708Y-1444193D01*
G37*
G36*
X1101699Y-1540205D02*
G01*
X1096721Y-1547215D01*
X1096721Y-1595221D01*
X1101699Y-1600200D01*
X1146708Y-1600200D01*
X1151686Y-1595221D01*
X1151686Y-1547215D01*
X1146708Y-1540205D01*
G37*
G36*
X1233576Y-1317193D02*
G01*
X1228598Y-1322171D01*
X1228598Y-1367180D01*
X1233576Y-1372158D01*
X1281582Y-1372158D01*
X1288592Y-1367180D01*
X1288592Y-1322171D01*
X1281582Y-1317193D01*
G37*
G36*
X1331569Y-1317193D02*
G01*
X1324559Y-1322171D01*
X1324559Y-1367180D01*
X1331569Y-1372158D01*
X1379575Y-1372158D01*
X1384554Y-1367180D01*
X1384554Y-1322171D01*
X1379575Y-1317193D01*
G37*
G36*
X1432407Y-742899D02*
G01*
X1425397Y-747877D01*
X1425397Y-792886D01*
X1432407Y-797864D01*
X1480413Y-797864D01*
X1485442Y-792886D01*
X1485442Y-747877D01*
X1480413Y-742899D01*
G37*
G36*
X1334414Y-742899D02*
G01*
X1329436Y-747877D01*
X1329436Y-792886D01*
X1334414Y-797864D01*
X1382420Y-797864D01*
X1389430Y-792886D01*
X1389430Y-747877D01*
X1382420Y-742899D01*
G37*
G36*
X1451864Y-1934616D02*
G01*
X1424990Y-1953006D01*
X1424990Y-1970278D01*
X1451864Y-1988667D01*
X1501495Y-1988667D01*
X1505508Y-1984654D01*
X1505508Y-1938629D01*
X1501495Y-1934616D01*
G37*
G36*
X1321460Y-1934616D02*
G01*
X1317447Y-1938629D01*
X1317447Y-1984654D01*
X1321460Y-1988667D01*
X1371092Y-1988667D01*
X1397965Y-1970278D01*
X1397965Y-1953006D01*
X1371092Y-1934616D01*
G37*
G36*
X884428Y-2686354D02*
G01*
X866089Y-2713228D01*
X866089Y-2762859D01*
X870051Y-2766872D01*
X916076Y-2766872D01*
X920038Y-2762859D01*
X920038Y-2713228D01*
X901700Y-2686354D01*
G37*
G36*
X870051Y-2578811D02*
G01*
X866089Y-2582824D01*
X866089Y-2632456D01*
X884428Y-2659329D01*
X901700Y-2659329D01*
X920038Y-2632456D01*
X920038Y-2582824D01*
X916076Y-2578811D01*
G37*
G36*
X322935Y-744778D02*
G01*
X318922Y-748792D01*
X318922Y-798880D01*
X322935Y-802843D01*
X368960Y-802843D01*
X372922Y-798880D01*
X372922Y-748792D01*
X368960Y-744778D01*
G37*
G36*
X322935Y-829868D02*
G01*
X318922Y-833882D01*
X318922Y-883919D01*
X322935Y-887933D01*
X368960Y-887933D01*
X372922Y-883919D01*
X372922Y-833882D01*
X368960Y-829868D01*
G37*
G36*
X439775Y-830376D02*
G01*
X435813Y-834390D01*
X435813Y-884428D01*
X439775Y-888441D01*
X485800Y-888441D01*
X489762Y-884428D01*
X489762Y-834390D01*
X485800Y-830376D01*
G37*
G36*
X439775Y-745286D02*
G01*
X435813Y-749300D01*
X435813Y-799388D01*
X439775Y-803351D01*
X485800Y-803351D01*
X489762Y-799388D01*
X489762Y-749300D01*
X485800Y-745286D01*
G37*
G36*
X402437Y-2059736D02*
G01*
X398424Y-2063750D01*
X398424Y-2113788D01*
X402437Y-2117801D01*
X448462Y-2117801D01*
X452475Y-2113788D01*
X452475Y-2063750D01*
X448462Y-2059736D01*
G37*
G36*
X402437Y-2144826D02*
G01*
X398424Y-2148840D01*
X398424Y-2198878D01*
X402437Y-2202891D01*
X448462Y-2202891D01*
X452475Y-2198878D01*
X452475Y-2148840D01*
X448462Y-2144826D01*
G37*
G36*
X938225Y-983132D02*
G01*
X934262Y-987145D01*
X934262Y-1033170D01*
X938225Y-1037183D01*
X988314Y-1037183D01*
X992327Y-1033170D01*
X992327Y-987145D01*
X988314Y-983132D01*
G37*
G36*
X853186Y-983132D02*
G01*
X849172Y-987145D01*
X849172Y-1033170D01*
X853186Y-1037183D01*
X903274Y-1037183D01*
X907237Y-1033170D01*
X907237Y-987145D01*
X903274Y-983132D01*
G37*
G36*
X1093216Y-1316431D02*
G01*
X1089202Y-1320393D01*
X1089202Y-1366418D01*
X1093216Y-1370380D01*
X1143254Y-1370380D01*
X1147267Y-1366418D01*
X1147267Y-1320393D01*
X1143254Y-1316431D01*
G37*
G36*
X1008126Y-1316431D02*
G01*
X1004112Y-1320393D01*
X1004112Y-1366418D01*
X1008126Y-1370380D01*
X1058214Y-1370380D01*
X1062177Y-1366418D01*
X1062177Y-1320393D01*
X1058214Y-1316431D01*
G37*
G36*
X641807Y-835050D02*
G01*
X637844Y-839063D01*
X637844Y-885088D01*
X641807Y-889101D01*
X691896Y-889101D01*
X695909Y-885088D01*
X695909Y-839063D01*
X691896Y-835050D01*
G37*
G36*
X556768Y-835050D02*
G01*
X552754Y-839063D01*
X552754Y-885088D01*
X556768Y-889101D01*
X606856Y-889101D01*
X610819Y-885088D01*
X610819Y-839063D01*
X606856Y-835050D01*
G37*
G36*
X890778Y-1615389D02*
G01*
X886764Y-1619351D01*
X886764Y-1665376D01*
X890778Y-1669338D01*
X940866Y-1669338D01*
X944829Y-1665376D01*
X944829Y-1619351D01*
X940866Y-1615389D01*
G37*
G36*
X975817Y-1615389D02*
G01*
X971854Y-1619351D01*
X971854Y-1665376D01*
X975817Y-1669338D01*
X1025906Y-1669338D01*
X1029919Y-1665376D01*
X1029919Y-1619351D01*
X1025906Y-1615389D01*
G37*
G36*
X853440Y-881837D02*
G01*
X849426Y-885799D01*
X849426Y-931824D01*
X853440Y-935786D01*
X903478Y-935786D01*
X907491Y-931824D01*
X907491Y-885799D01*
X903478Y-881837D01*
G37*
G36*
X938530Y-881837D02*
G01*
X934516Y-885799D01*
X934516Y-931824D01*
X938530Y-935786D01*
X988568Y-935786D01*
X992581Y-931824D01*
X992581Y-885799D01*
X988568Y-881837D01*
G37*
G36*
X976121Y-1513992D02*
G01*
X972108Y-1518005D01*
X972108Y-1564030D01*
X976121Y-1568043D01*
X1026160Y-1568043D01*
X1030173Y-1564030D01*
X1030173Y-1518005D01*
X1026160Y-1513992D01*
G37*
G36*
X891032Y-1513992D02*
G01*
X887018Y-1518005D01*
X887018Y-1564030D01*
X891032Y-1568043D01*
X941069Y-1568043D01*
X945083Y-1564030D01*
X945083Y-1518005D01*
X941069Y-1513992D01*
G37*
G36*
X700227Y-606145D02*
G01*
X700227Y-726135D01*
X730250Y-726135D01*
X730250Y-606145D01*
G37*
G36*
X750265Y-606145D02*
G01*
X750265Y-726135D01*
X780288Y-726135D01*
X780288Y-606145D01*
G37*
G36*
X800252Y-606145D02*
G01*
X800252Y-726135D01*
X830224Y-726135D01*
X830224Y-606145D01*
G37*
G36*
X850239Y-606145D02*
G01*
X850239Y-726135D01*
X880262Y-726135D01*
X880262Y-606145D01*
G37*
G36*
X900226Y-606145D02*
G01*
X900226Y-726135D01*
X930249Y-726135D01*
X930249Y-606145D01*
G37*
G36*
X950264Y-606145D02*
G01*
X950264Y-726135D01*
X980236Y-726135D01*
X980236Y-606145D01*
G37*
G36*
X1000252Y-606145D02*
G01*
X1000252Y-726135D01*
X1030224Y-726135D01*
X1030224Y-606145D01*
G37*
G36*
X1050239Y-606145D02*
G01*
X1050239Y-726135D01*
X1080262Y-726135D01*
X1080262Y-606145D01*
G37*
G36*
X1450492Y-446176D02*
G01*
X1443380Y-446785D01*
X1436420Y-448259D01*
X1429715Y-450545D01*
X1423263Y-453593D01*
X1417269Y-457403D01*
X1411732Y-461873D01*
X1406804Y-466953D01*
X1402486Y-472643D01*
X1398879Y-478739D01*
X1396034Y-485241D01*
X1393952Y-492048D01*
X1392682Y-499059D01*
X1392275Y-506120D01*
X1392377Y-589686D01*
X1393190Y-596747D01*
X1394866Y-603656D01*
X1397355Y-610311D01*
X1400606Y-616661D01*
X1404569Y-622554D01*
X1409192Y-627938D01*
X1411732Y-630428D01*
X1417269Y-634898D01*
X1423263Y-638708D01*
X1429715Y-641756D01*
X1436420Y-644042D01*
X1443380Y-645464D01*
X1450492Y-646125D01*
X1457604Y-645922D01*
X1464614Y-644855D01*
X1468069Y-644042D01*
X1474825Y-641756D01*
X1481226Y-638708D01*
X1487220Y-634898D01*
X1492758Y-630428D01*
X1497685Y-625297D01*
X1499971Y-622554D01*
X1503934Y-616661D01*
X1507185Y-610311D01*
X1509623Y-603656D01*
X1510588Y-600252D01*
X1511858Y-593242D01*
X1512265Y-586130D01*
X1512163Y-502615D01*
X1511858Y-499059D01*
X1510588Y-492048D01*
X1508506Y-485241D01*
X1507185Y-481939D01*
X1503934Y-475640D01*
X1499971Y-469747D01*
X1495298Y-464362D01*
X1490065Y-459536D01*
X1484274Y-455422D01*
X1478076Y-451967D01*
X1471472Y-449326D01*
X1468069Y-448259D01*
X1461109Y-446785D01*
X1454048Y-446176D01*
G37*
G36*
X326491Y-446176D02*
G01*
X319379Y-446785D01*
X312420Y-448259D01*
X305714Y-450545D01*
X299262Y-453593D01*
X293268Y-457403D01*
X287731Y-461873D01*
X282803Y-466953D01*
X278485Y-472643D01*
X274878Y-478739D01*
X272034Y-485241D01*
X269951Y-492048D01*
X268681Y-499059D01*
X268274Y-506171D01*
X268376Y-589686D01*
X269189Y-596747D01*
X270865Y-603656D01*
X273354Y-610311D01*
X276606Y-616661D01*
X280568Y-622554D01*
X285191Y-627938D01*
X287731Y-630428D01*
X293268Y-634898D01*
X299262Y-638708D01*
X305714Y-641756D01*
X312420Y-644042D01*
X319379Y-645464D01*
X326491Y-646125D01*
X333603Y-645922D01*
X340614Y-644855D01*
X344068Y-644042D01*
X350824Y-641756D01*
X357225Y-638708D01*
X363220Y-634898D01*
X368757Y-630428D01*
X373684Y-625297D01*
X375970Y-622554D01*
X379933Y-616661D01*
X383184Y-610311D01*
X385622Y-603656D01*
X386588Y-600252D01*
X387858Y-593242D01*
X388264Y-586130D01*
X388162Y-502615D01*
X387858Y-499059D01*
X386588Y-492048D01*
X384505Y-485241D01*
X381660Y-478739D01*
X378002Y-472643D01*
X375970Y-469747D01*
X371297Y-464362D01*
X366064Y-459536D01*
X360273Y-455422D01*
X354076Y-451967D01*
X347472Y-449326D01*
X344068Y-448259D01*
X337108Y-446785D01*
X330047Y-446176D01*
G37*
G36*
X326491Y-26162D02*
G01*
X319379Y-26822D01*
X312420Y-28244D01*
X305714Y-30530D01*
X299262Y-33578D01*
X293268Y-37388D01*
X287731Y-41859D01*
X282803Y-46990D01*
X278485Y-52628D01*
X274878Y-58775D01*
X272034Y-65278D01*
X270865Y-68630D01*
X269189Y-75539D01*
X268376Y-82600D01*
X268274Y-206146D01*
X268681Y-213258D01*
X269189Y-216763D01*
X270865Y-223672D01*
X273354Y-230327D01*
X276606Y-236677D01*
X280568Y-242570D01*
X285191Y-247954D01*
X290474Y-252729D01*
X296214Y-256895D01*
X302463Y-260299D01*
X309016Y-262991D01*
X315874Y-264871D01*
X322935Y-265887D01*
X330047Y-266141D01*
X337108Y-265480D01*
X340614Y-264871D01*
X347472Y-262991D01*
X354076Y-260299D01*
X360273Y-256895D01*
X366064Y-252729D01*
X371297Y-247954D01*
X375970Y-242570D01*
X379933Y-236677D01*
X383184Y-230327D01*
X385622Y-223672D01*
X387299Y-216763D01*
X387858Y-213258D01*
X388264Y-206146D01*
X388162Y-82600D01*
X387858Y-79044D01*
X386588Y-72034D01*
X384505Y-65278D01*
X381660Y-58775D01*
X378002Y-52628D01*
X375970Y-49733D01*
X371297Y-44348D01*
X366064Y-39573D01*
X360273Y-35407D01*
X357225Y-33578D01*
X350824Y-30530D01*
X344068Y-28244D01*
X337108Y-26822D01*
X333603Y-26365D01*
G37*
G36*
X1450492Y-26162D02*
G01*
X1443380Y-26822D01*
X1439875Y-27432D01*
X1433017Y-29311D01*
X1429715Y-30530D01*
X1423263Y-33629D01*
X1417269Y-37388D01*
X1411732Y-41859D01*
X1406804Y-46990D01*
X1402486Y-52628D01*
X1398879Y-58775D01*
X1396034Y-65278D01*
X1394866Y-68630D01*
X1393190Y-75539D01*
X1392377Y-82600D01*
X1392275Y-206146D01*
X1392682Y-213258D01*
X1393190Y-216763D01*
X1394866Y-223672D01*
X1397355Y-230327D01*
X1400606Y-236677D01*
X1404569Y-242570D01*
X1409192Y-247954D01*
X1414475Y-252729D01*
X1420215Y-256895D01*
X1426464Y-260299D01*
X1433017Y-262991D01*
X1439875Y-264871D01*
X1446936Y-265887D01*
X1454048Y-266141D01*
X1461109Y-265480D01*
X1464614Y-264871D01*
X1471472Y-262991D01*
X1478076Y-260299D01*
X1484274Y-256895D01*
X1490065Y-252729D01*
X1495298Y-247954D01*
X1499971Y-242570D01*
X1503934Y-236677D01*
X1507185Y-230327D01*
X1509623Y-223672D01*
X1511300Y-216763D01*
X1511858Y-213258D01*
X1512265Y-206146D01*
X1512163Y-82600D01*
X1511858Y-79044D01*
X1510588Y-72034D01*
X1508506Y-65278D01*
X1507185Y-61976D01*
X1503934Y-55626D01*
X1499971Y-49733D01*
X1495298Y-44348D01*
X1490065Y-39573D01*
X1484274Y-35407D01*
X1478076Y-32004D01*
X1474825Y-30530D01*
X1468069Y-28295D01*
X1464614Y-27432D01*
X1457604Y-26365D01*
G37*
G36*
X540258Y-606145D02*
G01*
X540258Y-726135D01*
X600252Y-726135D01*
X600252Y-606145D01*
G37*
G36*
X620268Y-606145D02*
G01*
X620268Y-726135D01*
X680262Y-726135D01*
X680262Y-606145D01*
G37*
G36*
X1100277Y-606145D02*
G01*
X1100277Y-726135D01*
X1160272Y-726135D01*
X1160272Y-606145D01*
G37*
G36*
X1180287Y-606145D02*
G01*
X1180287Y-726135D01*
X1240282Y-726135D01*
X1240282Y-606145D01*
G37*
G36*
X1286662Y-1799285D02*
G01*
X1281633Y-1804314D01*
X1281633Y-1884273D01*
X1286662Y-1889302D01*
X1366621Y-1889302D01*
X1371650Y-1884273D01*
X1371650Y-1861515D01*
X1334668Y-1861515D01*
X1334668Y-1828495D01*
X1371650Y-1828495D01*
X1371650Y-1804314D01*
X1366621Y-1799285D01*
G37*
G36*
X1446631Y-1799285D02*
G01*
X1441653Y-1804314D01*
X1441653Y-1828495D01*
X1479651Y-1828495D01*
X1479651Y-1861515D01*
X1441653Y-1861515D01*
X1441653Y-1884273D01*
X1446631Y-1889302D01*
X1525625Y-1889302D01*
X1530654Y-1884273D01*
X1530654Y-1804314D01*
X1525625Y-1799285D01*
G37*
G36*
X399694Y-1789887D02*
G01*
X394665Y-1794916D01*
X394665Y-1817674D01*
X431647Y-1817674D01*
X431647Y-1850694D01*
X394665Y-1850694D01*
X394665Y-1874875D01*
X399694Y-1879904D01*
X479653Y-1879904D01*
X484682Y-1874875D01*
X484682Y-1794916D01*
X479653Y-1789887D01*
G37*
G36*
X240690Y-1789887D02*
G01*
X235661Y-1794916D01*
X235661Y-1874875D01*
X240690Y-1879904D01*
X319684Y-1879904D01*
X324662Y-1874875D01*
X324662Y-1850694D01*
X286664Y-1850694D01*
X286664Y-1817674D01*
X324662Y-1817674D01*
X324662Y-1794916D01*
X319684Y-1789887D01*
G37*
G36*
X507796Y-1269136D02*
G01*
X501396Y-1275537D01*
X501396Y-1325880D01*
X530758Y-1353312D01*
X558393Y-1353312D01*
X587756Y-1325880D01*
X587756Y-1275537D01*
X581355Y-1269136D01*
G37*
G36*
X530758Y-1416304D02*
G01*
X501396Y-1443736D01*
X501396Y-1494078D01*
X507796Y-1500479D01*
X581355Y-1500479D01*
X587756Y-1494078D01*
X587756Y-1443736D01*
X558393Y-1416304D01*
G37*
D10*
X1099642Y-964361D02*
G01*
X1156642Y-964361D01*
X1099642Y-1014374D02*
G01*
X1156642Y-1014374D01*
X1099642Y-1064361D02*
G01*
X1156642Y-1064361D01*
X1099642Y-1114374D02*
G01*
X1156642Y-1114374D01*
X1203147Y-1160881D02*
G01*
X1203147Y-1217881D01*
X1253159Y-1160881D02*
G01*
X1253159Y-1217881D01*
X1303146Y-1160881D02*
G01*
X1303146Y-1217881D01*
X1353159Y-1160881D02*
G01*
X1353159Y-1217881D01*
X1399641Y-1114374D02*
G01*
X1456641Y-1114374D01*
X1399641Y-1064361D02*
G01*
X1456641Y-1064361D01*
X1399641Y-1014374D02*
G01*
X1456641Y-1014374D01*
X1399641Y-964361D02*
G01*
X1456641Y-964361D01*
X1353159Y-860882D02*
G01*
X1353159Y-917882D01*
X1303146Y-860882D02*
G01*
X1303146Y-917882D01*
X1253159Y-860882D02*
G01*
X1253159Y-917882D01*
X1203147Y-860882D02*
G01*
X1203147Y-917882D01*
D11*
G01*
X297713Y-2246528D03*
G01*
X297713Y-2106523D03*
G36*
X854417Y-3109048D02*
G01*
X914420Y-3109048D01*
X914420Y-3279051D01*
X854417Y-3279051D01*
G37*
G36*
X1234419Y-3109048D02*
G01*
X1294419Y-3109048D01*
X1294419Y-3279051D01*
X1234419Y-3279051D01*
G37*
G36*
X693285Y-1004948D02*
G01*
X693285Y-942718D01*
X582795Y-942718D01*
X582795Y-1004948D01*
G37*
G36*
X693285Y-1098928D02*
G01*
X693285Y-1036698D01*
X582795Y-1036698D01*
X582795Y-1098928D01*
G37*
G36*
X693285Y-1195443D02*
G01*
X693285Y-1133213D01*
X582795Y-1133213D01*
X582795Y-1195443D01*
G37*
G36*
X413885Y-1192908D02*
G01*
X413885Y-1130678D01*
X303395Y-1130678D01*
X303395Y-1192908D01*
G37*
G36*
X413885Y-1004948D02*
G01*
X413885Y-942718D01*
X303395Y-942718D01*
X303395Y-1004948D01*
G37*
D12*
G01*
X1207135Y-2303983D03*
G01*
X1207135Y-1953996D03*
G01*
X1207135Y-2003983D03*
G01*
X1207135Y-2053996D03*
G01*
X1207135Y-2103983D03*
G01*
X1207135Y-2153996D03*
G01*
X1207135Y-2203983D03*
G01*
X1207135Y-2253995D03*
G01*
X1207135Y-2353995D03*
G01*
X1157147Y-1753996D03*
G01*
X1157147Y-1828977D03*
G01*
X1157147Y-1878990D03*
G01*
X1157147Y-1928977D03*
G01*
X1157147Y-1978990D03*
G01*
X1157147Y-2029002D03*
G01*
X1157147Y-2078989D03*
G01*
X1157147Y-2129002D03*
G01*
X1157147Y-2178989D03*
G01*
X1157147Y-2229002D03*
G01*
X1157147Y-2403982D03*
G01*
X1082141Y-2353995D03*
G01*
X1107135Y-1753996D03*
G01*
X1082141Y-1803984D03*
G01*
X1057147Y-2403982D03*
G01*
X1032154Y-1803984D03*
G01*
X1032154Y-2353995D03*
G01*
X1007135Y-1753996D03*
G01*
X982141Y-1803984D03*
G01*
X982141Y-2353995D03*
G01*
X957148Y-1753996D03*
G01*
X957148Y-2403982D03*
G01*
X932129Y-1803984D03*
G01*
X907135Y-1753996D03*
G01*
X907135Y-2403982D03*
G01*
X882142Y-1803984D03*
G01*
X857148Y-1753996D03*
G01*
X857148Y-2403982D03*
G01*
X832129Y-1803984D03*
G01*
X832129Y-2353995D03*
G01*
X807135Y-1753996D03*
G01*
X807135Y-2403982D03*
G01*
X782142Y-1803984D03*
G01*
X782142Y-2353995D03*
G01*
X757148Y-1753996D03*
G01*
X757148Y-2403982D03*
G01*
X732129Y-2353995D03*
G01*
X707136Y-1753996D03*
G01*
X707136Y-2403982D03*
G01*
X682142Y-1803984D03*
G01*
X682142Y-2353995D03*
G01*
X657148Y-2403982D03*
G01*
X632129Y-1803984D03*
G01*
X607136Y-1878990D03*
G01*
X607136Y-1978990D03*
G01*
X607136Y-2029002D03*
G01*
X607136Y-2078989D03*
G01*
X607136Y-2129002D03*
G01*
X607136Y-2178989D03*
G01*
X607136Y-2229002D03*
G01*
X607136Y-2278989D03*
G01*
X607136Y-2403982D03*
G01*
X557148Y-1803984D03*
G01*
X557148Y-1853996D03*
G01*
X557148Y-1903984D03*
G01*
X557148Y-1953996D03*
G01*
X557148Y-2003983D03*
G01*
X557148Y-2053996D03*
G01*
X557148Y-2103983D03*
G01*
X557148Y-2153996D03*
G01*
X557148Y-2203983D03*
G01*
X557148Y-2253995D03*
G01*
X557148Y-2303983D03*
G01*
X557148Y-2353995D03*
D13*
G01*
X882142Y-2078989D03*
G36*
X865101Y-1349314D02*
G01*
X945100Y-1349314D01*
X945100Y-1429313D01*
X865101Y-1429313D01*
G37*
G36*
X864400Y-1189413D02*
G01*
X944399Y-1189413D01*
X944399Y-1269413D01*
X864400Y-1269413D01*
G37*
G36*
X1363139Y-954356D02*
G01*
X1363139Y-1124356D01*
X1193139Y-1124356D01*
X1193139Y-996856D01*
X1235641Y-954354D01*
G37*
D14*
G01*
X1480413Y-1584197D03*
G01*
X1335430Y-1584197D03*
D15*
G01*
X1365377Y-2583814D03*
G01*
X1255395Y-2583814D03*
G01*
X1255395Y-2663825D03*
G01*
X1365377Y-2663825D03*
M02*
