G04 Layer: TopSolderMaskLayer*
G04 EasyEDA v6.5.9, 2022-08-10 12:44:31*
G04 c5846564ba334fc5ac80b38e15378060,f7cd1a63a7ae402ba8e4f3fce04b6e5d,10*
G04 Gerber Generator version 0.2*
G04 Scale: 100 percent, Rotated: No, Reflected: No *
G04 Dimensions in millimeters *
G04 leading zeros omitted , absolute positions ,4 integer and 5 decimal *
%FSLAX45Y45*%
%MOMM*%

%ADD10C,0.3816*%
%ADD11C,1.3016*%
%ADD12C,0.3766*%
%ADD13C,1.4032*%

%LPD*%
D10*
X1099642Y-964361D02*
G01*
X1156642Y-964361D01*
X1099642Y-1014374D02*
G01*
X1156642Y-1014374D01*
X1099642Y-1064361D02*
G01*
X1156642Y-1064361D01*
X1099642Y-1114374D02*
G01*
X1156642Y-1114374D01*
X1203147Y-1160881D02*
G01*
X1203147Y-1217881D01*
X1253159Y-1160881D02*
G01*
X1253159Y-1217881D01*
X1303146Y-1160881D02*
G01*
X1303146Y-1217881D01*
X1353159Y-1160881D02*
G01*
X1353159Y-1217881D01*
X1399641Y-1114374D02*
G01*
X1456641Y-1114374D01*
X1399641Y-1064361D02*
G01*
X1456641Y-1064361D01*
X1399641Y-1014374D02*
G01*
X1456641Y-1014374D01*
X1399641Y-964361D02*
G01*
X1456641Y-964361D01*
X1353159Y-860882D02*
G01*
X1353159Y-917882D01*
X1303146Y-860882D02*
G01*
X1303146Y-917882D01*
X1253159Y-860882D02*
G01*
X1253159Y-917882D01*
X1203147Y-860882D02*
G01*
X1203147Y-917882D01*
D11*
X1452270Y-206151D02*
G01*
X1452270Y-86151D01*
X328269Y-206151D02*
G01*
X328269Y-86151D01*
X328269Y-586150D02*
G01*
X328269Y-506150D01*
X1452270Y-586150D02*
G01*
X1452270Y-506150D01*
G36*
X835152Y-2874010D02*
G01*
X835152Y-2810002D01*
X924305Y-2810002D01*
X924305Y-2874010D01*
G37*
G36*
X726186Y-2874010D02*
G01*
X726186Y-2810002D01*
X815339Y-2810002D01*
X815339Y-2874010D01*
G37*
G36*
X249428Y-2296668D02*
G01*
X249428Y-2196337D01*
X345947Y-2196337D01*
X345947Y-2296668D01*
G37*
G36*
X249428Y-2156713D02*
G01*
X249428Y-2056384D01*
X345947Y-2056384D01*
X345947Y-2156713D01*
G37*
G36*
X1421637Y-2092960D02*
G01*
X1421637Y-2028952D01*
X1510792Y-2028952D01*
X1510792Y-2092960D01*
G37*
G36*
X1312671Y-2092960D02*
G01*
X1312671Y-2028952D01*
X1401826Y-2028952D01*
X1401826Y-2092960D01*
G37*
G36*
X1118107Y-2674112D02*
G01*
X1118107Y-2584957D01*
X1182115Y-2584957D01*
X1182115Y-2674112D01*
G37*
G36*
X1118107Y-2565145D02*
G01*
X1118107Y-2475992D01*
X1182115Y-2475992D01*
X1182115Y-2565145D01*
G37*
G36*
X1017778Y-2566923D02*
G01*
X1017778Y-2477770D01*
X1081786Y-2477770D01*
X1081786Y-2566923D01*
G37*
G36*
X1017778Y-2675889D02*
G01*
X1017778Y-2586736D01*
X1081786Y-2586736D01*
X1081786Y-2675889D01*
G37*
G36*
X1439418Y-2723387D02*
G01*
X1439418Y-2634234D01*
X1503426Y-2634234D01*
X1503426Y-2723387D01*
G37*
G36*
X1439418Y-2614421D02*
G01*
X1439418Y-2525268D01*
X1503426Y-2525268D01*
X1503426Y-2614421D01*
G37*
G36*
X1417573Y-1760220D02*
G01*
X1417573Y-1696212D01*
X1506728Y-1696212D01*
X1506728Y-1760220D01*
G37*
G36*
X1308607Y-1760220D02*
G01*
X1308607Y-1696212D01*
X1397762Y-1696212D01*
X1397762Y-1760220D01*
G37*
G36*
X419862Y-2478786D02*
G01*
X419862Y-2389631D01*
X483870Y-2389631D01*
X483870Y-2478786D01*
G37*
G36*
X419862Y-2369820D02*
G01*
X419862Y-2280665D01*
X483870Y-2280665D01*
X483870Y-2369820D01*
G37*
G36*
X1421892Y-2191765D02*
G01*
X1421892Y-2127757D01*
X1511045Y-2127757D01*
X1511045Y-2191765D01*
G37*
G36*
X1312926Y-2191765D02*
G01*
X1312926Y-2127757D01*
X1402079Y-2127757D01*
X1402079Y-2191765D01*
G37*
G36*
X1319784Y-1484376D02*
G01*
X1319784Y-1420368D01*
X1408937Y-1420368D01*
X1408937Y-1484376D01*
G37*
G36*
X1428750Y-1484376D02*
G01*
X1428750Y-1420368D01*
X1517904Y-1420368D01*
X1517904Y-1484376D01*
G37*
G36*
X1208786Y-1511300D02*
G01*
X1208786Y-1422145D01*
X1272794Y-1422145D01*
X1272794Y-1511300D01*
G37*
G36*
X1208786Y-1620265D02*
G01*
X1208786Y-1531112D01*
X1272794Y-1531112D01*
X1272794Y-1620265D01*
G37*
G36*
X866647Y-2540762D02*
G01*
X866647Y-2476754D01*
X955802Y-2476754D01*
X955802Y-2540762D01*
G37*
G36*
X757681Y-2540762D02*
G01*
X757681Y-2476754D01*
X846836Y-2476754D01*
X846836Y-2540762D01*
G37*
G36*
X611378Y-2691129D02*
G01*
X611378Y-2627121D01*
X700531Y-2627121D01*
X700531Y-2691129D01*
G37*
G36*
X720344Y-2691129D02*
G01*
X720344Y-2627121D01*
X809497Y-2627121D01*
X809497Y-2691129D01*
G37*
G36*
X372618Y-2001265D02*
G01*
X372618Y-1937257D01*
X461771Y-1937257D01*
X461771Y-2001265D01*
G37*
G36*
X263652Y-2001265D02*
G01*
X263652Y-1937257D01*
X352805Y-1937257D01*
X352805Y-2001265D01*
G37*
G36*
X392684Y-1749044D02*
G01*
X392684Y-1685036D01*
X481837Y-1685036D01*
X481837Y-1749044D01*
G37*
G36*
X283718Y-1749044D02*
G01*
X283718Y-1685036D01*
X372871Y-1685036D01*
X372871Y-1749044D01*
G37*
G36*
X1287018Y-2462529D02*
G01*
X1287018Y-2373376D01*
X1351026Y-2373376D01*
X1351026Y-2462529D01*
G37*
G36*
X1287018Y-2353563D02*
G01*
X1287018Y-2264410D01*
X1351026Y-2264410D01*
X1351026Y-2353563D01*
G37*
G36*
X410210Y-1586992D02*
G01*
X410210Y-1522984D01*
X499363Y-1522984D01*
X499363Y-1586992D01*
G37*
G36*
X301244Y-1586992D02*
G01*
X301244Y-1522984D01*
X390397Y-1522984D01*
X390397Y-1586992D01*
G37*
G36*
X1405889Y-2465070D02*
G01*
X1405889Y-2375915D01*
X1469897Y-2375915D01*
X1469897Y-2465070D01*
G37*
G36*
X1405889Y-2356104D02*
G01*
X1405889Y-2266950D01*
X1469897Y-2266950D01*
X1469897Y-2356104D01*
G37*
G36*
X298195Y-1364487D02*
G01*
X298195Y-1275334D01*
X362204Y-1275334D01*
X362204Y-1364487D01*
G37*
G36*
X298195Y-1473454D02*
G01*
X298195Y-1384300D01*
X362204Y-1384300D01*
X362204Y-1473454D01*
G37*
G36*
X398526Y-1472945D02*
G01*
X398526Y-1383792D01*
X462534Y-1383792D01*
X462534Y-1472945D01*
G37*
G36*
X398526Y-1363979D02*
G01*
X398526Y-1274826D01*
X462534Y-1274826D01*
X462534Y-1363979D01*
G37*
G36*
X950468Y-1143762D02*
G01*
X950468Y-1079754D01*
X1039621Y-1079754D01*
X1039621Y-1143762D01*
G37*
G36*
X841502Y-1143762D02*
G01*
X841502Y-1079754D01*
X930655Y-1079754D01*
X930655Y-1143762D01*
G37*
G36*
X1092200Y-1621281D02*
G01*
X1092200Y-1532128D01*
X1156207Y-1532128D01*
X1156207Y-1621281D01*
G37*
G36*
X1092200Y-1512315D02*
G01*
X1092200Y-1423162D01*
X1156207Y-1423162D01*
X1156207Y-1512315D01*
G37*
G36*
X1316481Y-1376679D02*
G01*
X1316481Y-1312671D01*
X1405636Y-1312671D01*
X1405636Y-1376679D01*
G37*
G36*
X1207515Y-1376679D02*
G01*
X1207515Y-1312671D01*
X1296670Y-1312671D01*
X1296670Y-1376679D01*
G37*
G36*
X1308354Y-802386D02*
G01*
X1308354Y-738378D01*
X1397507Y-738378D01*
X1397507Y-802386D01*
G37*
G36*
X1417320Y-802386D02*
G01*
X1417320Y-738378D01*
X1506473Y-738378D01*
X1506473Y-802386D01*
G37*
G36*
X1421384Y-1993645D02*
G01*
X1421384Y-1929637D01*
X1510537Y-1929637D01*
X1510537Y-1993645D01*
G37*
G36*
X1312418Y-1993645D02*
G01*
X1312418Y-1929637D01*
X1401571Y-1929637D01*
X1401571Y-1993645D01*
G37*
G36*
X861060Y-2771902D02*
G01*
X861060Y-2682747D01*
X925068Y-2682747D01*
X925068Y-2771902D01*
G37*
G36*
X861060Y-2662936D02*
G01*
X861060Y-2573781D01*
X925068Y-2573781D01*
X925068Y-2662936D01*
G37*
G36*
X844295Y-3289300D02*
G01*
X844295Y-3098800D01*
X924560Y-3098800D01*
X924560Y-3289300D01*
G37*
G36*
X1224279Y-3289300D02*
G01*
X1224279Y-3098800D01*
X1304544Y-3098800D01*
X1304544Y-3289300D01*
G37*
G36*
X577595Y-1009904D02*
G01*
X577595Y-937513D01*
X698245Y-937513D01*
X698245Y-1009904D01*
G37*
G36*
X577595Y-1103884D02*
G01*
X577595Y-1031494D01*
X698245Y-1031494D01*
X698245Y-1103884D01*
G37*
G36*
X577595Y-1200404D02*
G01*
X577595Y-1128013D01*
X698245Y-1128013D01*
X698245Y-1200404D01*
G37*
G36*
X298195Y-1197863D02*
G01*
X298195Y-1125473D01*
X418845Y-1125473D01*
X418845Y-1197863D01*
G37*
G36*
X298195Y-1009904D02*
G01*
X298195Y-937513D01*
X418845Y-937513D01*
X418845Y-1009904D01*
G37*
G36*
X313944Y-806450D02*
G01*
X313944Y-739647D01*
X377952Y-739647D01*
X377952Y-806450D01*
G37*
G36*
X313944Y-893063D02*
G01*
X313944Y-826262D01*
X377952Y-826262D01*
X377952Y-893063D01*
G37*
G36*
X430784Y-893571D02*
G01*
X430784Y-826770D01*
X494792Y-826770D01*
X494792Y-893571D01*
G37*
G36*
X430784Y-806957D02*
G01*
X430784Y-740155D01*
X494792Y-740155D01*
X494792Y-806957D01*
G37*
G36*
X393445Y-2121407D02*
G01*
X393445Y-2054605D01*
X457454Y-2054605D01*
X457454Y-2121407D01*
G37*
G36*
X393445Y-2208021D02*
G01*
X393445Y-2141220D01*
X457454Y-2141220D01*
X457454Y-2208021D01*
G37*
G36*
X930655Y-1042162D02*
G01*
X930655Y-978154D01*
X997457Y-978154D01*
X997457Y-1042162D01*
G37*
G36*
X844042Y-1042162D02*
G01*
X844042Y-978154D01*
X910844Y-978154D01*
X910844Y-1042162D01*
G37*
G36*
X1085595Y-1375410D02*
G01*
X1085595Y-1311402D01*
X1152397Y-1311402D01*
X1152397Y-1375410D01*
G37*
G36*
X998981Y-1375410D02*
G01*
X998981Y-1311402D01*
X1065784Y-1311402D01*
X1065784Y-1375410D01*
G37*
G36*
X634237Y-894079D02*
G01*
X634237Y-830071D01*
X701039Y-830071D01*
X701039Y-894079D01*
G37*
G36*
X547623Y-894079D02*
G01*
X547623Y-830071D01*
X614426Y-830071D01*
X614426Y-894079D01*
G37*
G36*
X881634Y-1674368D02*
G01*
X881634Y-1610360D01*
X948436Y-1610360D01*
X948436Y-1674368D01*
G37*
G36*
X968247Y-1674368D02*
G01*
X968247Y-1610360D01*
X1035050Y-1610360D01*
X1035050Y-1674368D01*
G37*
G36*
X844295Y-940815D02*
G01*
X844295Y-876807D01*
X911097Y-876807D01*
X911097Y-940815D01*
G37*
G36*
X930910Y-940815D02*
G01*
X930910Y-876807D01*
X997712Y-876807D01*
X997712Y-940815D01*
G37*
G36*
X968502Y-1573021D02*
G01*
X968502Y-1509013D01*
X1035304Y-1509013D01*
X1035304Y-1573021D01*
G37*
G36*
X881887Y-1573021D02*
G01*
X881887Y-1509013D01*
X948689Y-1509013D01*
X948689Y-1573021D01*
G37*
D12*
G01*
X1207135Y-2303983D03*
G01*
X1207135Y-1953996D03*
G01*
X1207135Y-2003983D03*
G01*
X1207135Y-2053996D03*
G01*
X1207135Y-2103983D03*
G01*
X1207135Y-2153996D03*
G01*
X1207135Y-2203983D03*
G01*
X1207135Y-2253995D03*
G01*
X1207135Y-2353995D03*
G01*
X1157147Y-1753996D03*
G01*
X1157147Y-1828977D03*
G01*
X1157147Y-1878990D03*
G01*
X1157147Y-1928977D03*
G01*
X1157147Y-1978990D03*
G01*
X1157147Y-2029002D03*
G01*
X1157147Y-2078989D03*
G01*
X1157147Y-2129002D03*
G01*
X1157147Y-2178989D03*
G01*
X1157147Y-2229002D03*
G01*
X1157147Y-2403982D03*
G01*
X1082141Y-2353995D03*
G01*
X1107135Y-1753996D03*
G01*
X1082141Y-1803984D03*
G01*
X1057147Y-2403982D03*
G01*
X1032154Y-1803984D03*
G01*
X1032154Y-2353995D03*
G01*
X1007135Y-1753996D03*
G01*
X982141Y-1803984D03*
G01*
X982141Y-2353995D03*
G01*
X957148Y-1753996D03*
G01*
X957148Y-2403982D03*
G01*
X932129Y-1803984D03*
G01*
X907135Y-1753996D03*
G01*
X907135Y-2403982D03*
G01*
X882142Y-1803984D03*
G01*
X857148Y-1753996D03*
G01*
X857148Y-2403982D03*
G01*
X832129Y-1803984D03*
G01*
X832129Y-2353995D03*
G01*
X807135Y-1753996D03*
G01*
X807135Y-2403982D03*
G01*
X782142Y-1803984D03*
G01*
X782142Y-2353995D03*
G01*
X757148Y-1753996D03*
G01*
X757148Y-2403982D03*
G01*
X732129Y-2353995D03*
G01*
X707136Y-1753996D03*
G01*
X707136Y-2403982D03*
G01*
X682142Y-1803984D03*
G01*
X682142Y-2353995D03*
G01*
X657148Y-2403982D03*
G01*
X632129Y-1803984D03*
G01*
X607136Y-1878990D03*
G01*
X607136Y-1978990D03*
G01*
X607136Y-2029002D03*
G01*
X607136Y-2078989D03*
G01*
X607136Y-2129002D03*
G01*
X607136Y-2178989D03*
G01*
X607136Y-2229002D03*
G01*
X607136Y-2278989D03*
G01*
X607136Y-2403982D03*
G01*
X557148Y-1803984D03*
G01*
X557148Y-1853996D03*
G01*
X557148Y-1903984D03*
G01*
X557148Y-1953996D03*
G01*
X557148Y-2003983D03*
G01*
X557148Y-2053996D03*
G01*
X557148Y-2103983D03*
G01*
X557148Y-2153996D03*
G01*
X557148Y-2203983D03*
G01*
X557148Y-2253995D03*
G01*
X557148Y-2303983D03*
G01*
X557148Y-2353995D03*
G36*
X680212Y-2280920D02*
G01*
X680212Y-1877060D01*
X1084071Y-1877060D01*
X1084071Y-2280920D01*
G37*
D11*
G01*
X127000Y-139700D03*
G36*
X45720Y-478789D02*
G01*
X45720Y-308610D01*
X208279Y-308610D01*
X208279Y-478789D01*
G37*
G01*
X127000Y-647700D03*
G01*
X127000Y-901700D03*
G01*
X127000Y-1155700D03*
G01*
X127000Y-1409700D03*
G01*
X127000Y-1663700D03*
G01*
X127000Y-1917700D03*
G01*
X127000Y-2171700D03*
G01*
X127000Y-2425700D03*
G01*
X127000Y-2679700D03*
G01*
X127000Y-2933700D03*
G01*
X127000Y-3187700D03*
G01*
X1651000Y-3187700D03*
G01*
X1651000Y-2933700D03*
G01*
X1651000Y-2679700D03*
G01*
X1651000Y-2425700D03*
G01*
X1651000Y-2171700D03*
G01*
X1651000Y-1917700D03*
G01*
X1651000Y-1663700D03*
G01*
X1651000Y-1409700D03*
G01*
X1651000Y-1155700D03*
G01*
X1651000Y-901700D03*
G01*
X1651000Y-647700D03*
G01*
X1651000Y-393700D03*
G36*
X1569720Y-224789D02*
G01*
X1569720Y-54610D01*
X1732279Y-54610D01*
X1732279Y-224789D01*
G37*
D13*
G01*
X320294Y-2426207D03*
G01*
X320294Y-2680207D03*
G01*
X320294Y-2934207D03*
G01*
X320294Y-3188207D03*
G36*
X860044Y-1434337D02*
G01*
X860044Y-1344168D01*
X950213Y-1344168D01*
X950213Y-1434337D01*
G37*
G36*
X859281Y-1274571D02*
G01*
X859281Y-1184402D01*
X949452Y-1184402D01*
X949452Y-1274571D01*
G37*
G36*
X1187957Y-1129537D02*
G01*
X1187957Y-994663D01*
X1233423Y-949197D01*
X1368297Y-949197D01*
X1368297Y-1129537D01*
G37*
G36*
X1205229Y-731265D02*
G01*
X1205229Y-600963D01*
X1245362Y-600963D01*
X1245362Y-731265D01*
G37*
G36*
X1175257Y-731265D02*
G01*
X1175257Y-600963D01*
X1215389Y-600963D01*
X1215389Y-731265D01*
G37*
G36*
X1125220Y-731265D02*
G01*
X1125220Y-600963D01*
X1165352Y-600963D01*
X1165352Y-731265D01*
G37*
G36*
X1095247Y-731265D02*
G01*
X1095247Y-600963D01*
X1135379Y-600963D01*
X1135379Y-731265D01*
G37*
G36*
X1045210Y-731265D02*
G01*
X1045210Y-600963D01*
X1085342Y-600963D01*
X1085342Y-731265D01*
G37*
G36*
X995171Y-731265D02*
G01*
X995171Y-600963D01*
X1035304Y-600963D01*
X1035304Y-731265D01*
G37*
G36*
X945134Y-731265D02*
G01*
X945134Y-600963D01*
X985265Y-600963D01*
X985265Y-731265D01*
G37*
G36*
X895095Y-731265D02*
G01*
X895095Y-600963D01*
X935228Y-600963D01*
X935228Y-731265D01*
G37*
G36*
X845312Y-731265D02*
G01*
X845312Y-600963D01*
X885444Y-600963D01*
X885444Y-731265D01*
G37*
G36*
X795273Y-731265D02*
G01*
X795273Y-600963D01*
X835405Y-600963D01*
X835405Y-731265D01*
G37*
G36*
X745236Y-731265D02*
G01*
X745236Y-600963D01*
X785368Y-600963D01*
X785368Y-731265D01*
G37*
G36*
X695197Y-731265D02*
G01*
X695197Y-600963D01*
X735329Y-600963D01*
X735329Y-731265D01*
G37*
G36*
X645160Y-731265D02*
G01*
X645160Y-600963D01*
X685292Y-600963D01*
X685292Y-731265D01*
G37*
G36*
X615187Y-731265D02*
G01*
X615187Y-600963D01*
X655320Y-600963D01*
X655320Y-731265D01*
G37*
G36*
X565150Y-731265D02*
G01*
X565150Y-600963D01*
X605281Y-600963D01*
X605281Y-731265D01*
G37*
G36*
X535178Y-731265D02*
G01*
X535178Y-600963D01*
X575310Y-600963D01*
X575310Y-731265D01*
G37*
G36*
X1437894Y-1659381D02*
G01*
X1437894Y-1509013D01*
X1522984Y-1509013D01*
X1522984Y-1659381D01*
G37*
G36*
X1292860Y-1659381D02*
G01*
X1292860Y-1509013D01*
X1377950Y-1509013D01*
X1377950Y-1659381D01*
G37*
G36*
X1327912Y-2616454D02*
G01*
X1327912Y-2551176D01*
X1402842Y-2551176D01*
X1402842Y-2616454D01*
G37*
G36*
X1217929Y-2616454D02*
G01*
X1217929Y-2551176D01*
X1292860Y-2551176D01*
X1292860Y-2616454D01*
G37*
G36*
X1217929Y-2696463D02*
G01*
X1217929Y-2631186D01*
X1292860Y-2631186D01*
X1292860Y-2696463D01*
G37*
G36*
X1327912Y-2696463D02*
G01*
X1327912Y-2631186D01*
X1402842Y-2631186D01*
X1402842Y-2696463D01*
G37*
G36*
X1285494Y-1892554D02*
G01*
X1285494Y-1796034D01*
X1376171Y-1796034D01*
X1376171Y-1892554D01*
G37*
G36*
X1436115Y-1892554D02*
G01*
X1436115Y-1796034D01*
X1526794Y-1796034D01*
X1526794Y-1892554D01*
G37*
G36*
X390144Y-1883155D02*
G01*
X390144Y-1786636D01*
X480821Y-1786636D01*
X480821Y-1883155D01*
G37*
G36*
X239521Y-1883155D02*
G01*
X239521Y-1786636D01*
X330200Y-1786636D01*
X330200Y-1883155D01*
G37*
G36*
X496315Y-1354836D02*
G01*
X496315Y-1264157D01*
X592836Y-1264157D01*
X592836Y-1354836D01*
G37*
G36*
X496315Y-1505457D02*
G01*
X496315Y-1414779D01*
X592836Y-1414779D01*
X592836Y-1505457D01*
G37*
M02*
