G04 Layer: MechanicalLayer*
G04 EasyEDA v6.5.9, 2022-08-10 12:44:31*
G04 c5846564ba334fc5ac80b38e15378060,f7cd1a63a7ae402ba8e4f3fce04b6e5d,10*
G04 Gerber Generator version 0.2*
G04 Scale: 100 percent, Rotated: No, Reflected: No *
G04 Dimensions in millimeters *
G04 leading zeros omitted , absolute positions ,4 integer and 5 decimal *
%FSLAX45Y45*%
%MOMM*%

%ADD10C,0.0508*%
%ADD11C,0.0500*%
%ADD12C,0.1000*%

%LPD*%
D10*
X890778Y-2062479D02*
G01*
X889254Y-2061210D01*
X887984Y-2062479D01*
X889254Y-2064004D01*
X890778Y-2062479D01*
X912876Y-2073147D02*
G01*
X883920Y-2073147D01*
X912876Y-2073147D02*
G01*
X912876Y-2082800D01*
X911605Y-2086863D01*
X908812Y-2089657D01*
X906018Y-2091181D01*
X901700Y-2092452D01*
X894842Y-2092452D01*
X890778Y-2091181D01*
X887984Y-2089657D01*
X885189Y-2086863D01*
X883920Y-2082800D01*
X883920Y-2073147D01*
X894842Y-2101595D02*
G01*
X894842Y-2118360D01*
X897636Y-2118360D01*
X900429Y-2116836D01*
X901700Y-2115565D01*
X903223Y-2112771D01*
X903223Y-2108707D01*
X901700Y-2105913D01*
X899160Y-2103120D01*
X894842Y-2101595D01*
X892047Y-2101595D01*
X887984Y-2103120D01*
X885189Y-2105913D01*
X883920Y-2108707D01*
X883920Y-2112771D01*
X885189Y-2115565D01*
X887984Y-2118360D01*
X899160Y-2142744D02*
G01*
X901700Y-2141220D01*
X903223Y-2137155D01*
X903223Y-2133092D01*
X901700Y-2128773D01*
X899160Y-2127504D01*
X896365Y-2128773D01*
X894842Y-2131568D01*
X893571Y-2138426D01*
X892047Y-2141220D01*
X889254Y-2142744D01*
X887984Y-2142744D01*
X885189Y-2141220D01*
X883920Y-2137155D01*
X883920Y-2133092D01*
X885189Y-2128773D01*
X887984Y-2127504D01*
X912876Y-2151887D02*
G01*
X911605Y-2153157D01*
X912876Y-2154681D01*
X914400Y-2153157D01*
X912876Y-2151887D01*
X903223Y-2153157D02*
G01*
X883920Y-2153157D01*
X903223Y-2180336D02*
G01*
X881126Y-2180336D01*
X876807Y-2179065D01*
X875537Y-2177542D01*
X874013Y-2174747D01*
X874013Y-2170684D01*
X875537Y-2167889D01*
X899160Y-2180336D02*
G01*
X901700Y-2177542D01*
X903223Y-2174747D01*
X903223Y-2170684D01*
X901700Y-2167889D01*
X899160Y-2165095D01*
X894842Y-2163826D01*
X892047Y-2163826D01*
X887984Y-2165095D01*
X885189Y-2167889D01*
X883920Y-2170684D01*
X883920Y-2174747D01*
X885189Y-2177542D01*
X887984Y-2180336D01*
X903223Y-2189479D02*
G01*
X883920Y-2189479D01*
X897636Y-2189479D02*
G01*
X901700Y-2193544D01*
X903223Y-2196337D01*
X903223Y-2200655D01*
X901700Y-2203450D01*
X897636Y-2204720D01*
X883920Y-2204720D01*
X903223Y-2230628D02*
G01*
X883920Y-2230628D01*
X899160Y-2230628D02*
G01*
X901700Y-2227834D01*
X903223Y-2225039D01*
X903223Y-2220721D01*
X901700Y-2217928D01*
X899160Y-2215387D01*
X894842Y-2213863D01*
X892047Y-2213863D01*
X887984Y-2215387D01*
X885189Y-2217928D01*
X883920Y-2220721D01*
X883920Y-2225039D01*
X885189Y-2227834D01*
X887984Y-2230628D01*
X912876Y-2243836D02*
G01*
X889254Y-2243836D01*
X885189Y-2245105D01*
X883920Y-2247900D01*
X883920Y-2250694D01*
X903223Y-2239771D02*
G01*
X903223Y-2249423D01*
X903223Y-2266695D02*
G01*
X901700Y-2264155D01*
X899160Y-2261362D01*
X894842Y-2259837D01*
X892047Y-2259837D01*
X887984Y-2261362D01*
X885189Y-2264155D01*
X883920Y-2266695D01*
X883920Y-2271013D01*
X885189Y-2273807D01*
X887984Y-2276602D01*
X892047Y-2277871D01*
X894842Y-2277871D01*
X899160Y-2276602D01*
X901700Y-2273807D01*
X903223Y-2271013D01*
X903223Y-2266695D01*
X903223Y-2287015D02*
G01*
X883920Y-2287015D01*
X894842Y-2287015D02*
G01*
X899160Y-2288539D01*
X901700Y-2291079D01*
X903223Y-2293873D01*
X903223Y-2298192D01*
D11*
X1257142Y-2453990D02*
G01*
X507141Y-2453990D01*
X507141Y-1703989D01*
X1257142Y-1703989D01*
X1257142Y-2453990D01*
D12*
X882142Y-2028990D02*
G01*
X882142Y-2128989D01*
X832142Y-2078989D02*
G01*
X932141Y-2078989D01*
X1232141Y-1728990D02*
G01*
X1232141Y-2428989D01*
X532142Y-2428989D01*
X532142Y-1728990D01*
X1232141Y-1728990D01*
G75*
G01*
X1161542Y-1850390D02*
G03*
X1161138Y-1850387I32J37255D01*
M02*
